<?xml version="1.0" standalone="no"?>
<!DOCTYPE svg PUBLIC "-//W3C//DTD SVG 20010904//EN"
 "http://www.w3.org/TR/2001/REC-SVG-20010904/DTD/svg10.dtd">
<svg version="1.0" xmlns="http://www.w3.org/2000/svg"
 width="679.000000pt" height="270.000000pt" viewBox="0 0 679.000000 270.000000"
 preserveAspectRatio="xMidYMid meet">

<g transform="translate(0.000000,270.000000) scale(0.100000,-0.100000)"
fill="#000000" stroke="none">
<path d="M4295 2260 c-3 -6 0 -12 7 -14 18 -6 464 -84 516 -90 24 -3 47 -8 53
-11 5 -4 9 -2 9 4 0 13 11 10 -300 71 -280 55 -276 54 -285 40z"/>
<path d="M4890 2150 c0 -4 9 -10 20 -13 11 -3 20 -2 20 3 0 4 -9 10 -20 13
-11 3 -20 2 -20 -3z"/>
<path d="M4946 2142 c-3 -5 1 -9 9 -9 8 0 12 4 9 9 -3 4 -7 8 -9 8 -2 0 -6 -4
-9 -8z"/>
<path d="M2990 910 l0 -290 35 0 34 0 3 152 3 152 34 23 c19 13 49 23 67 23
82 0 94 -27 94 -210 l0 -140 30 0 30 0 0 151 c0 168 -9 202 -59 232 -43 25
-111 22 -155 -8 -20 -14 -39 -25 -41 -25 -3 0 -5 52 -5 115 l0 115 -35 0 -35
0 0 -290z"/>
<path d="M4620 910 l0 -290 35 0 34 0 3 152 3 152 34 23 c19 13 49 23 67 23
82 0 94 -27 94 -210 l0 -140 30 0 30 0 0 151 c0 168 -9 202 -59 232 -43 25
-111 22 -155 -8 -20 -14 -39 -25 -41 -25 -3 0 -5 52 -5 115 l0 115 -35 0 -35
0 0 -290z"/>
<path d="M145 1176 c-73 -31 -110 -116 -84 -190 17 -49 56 -77 147 -107 83
-27 116 -56 115 -103 -3 -99 -119 -137 -217 -71 -45 31 -52 31 -67 3 -10 -19
-8 -25 16 -44 61 -48 172 -58 245 -21 101 50 122 204 36 261 -14 9 -59 28 -98
42 -87 31 -118 57 -118 96 0 42 17 68 55 84 48 20 74 18 129 -10 l47 -24 14
21 c18 26 12 35 -39 58 -48 22 -137 24 -181 5z"/>
<path d="M3390 1155 l0 -35 95 0 95 0 0 -250 0 -250 35 0 35 0 0 250 0 250 95
0 95 0 0 35 0 35 -225 0 -225 0 0 -35z"/>
<path d="M533 995 c-56 -28 -61 -36 -39 -54 11 -9 23 -7 52 9 56 29 117 27
143 -6 12 -15 21 -41 21 -59 l0 -31 -76 -12 c-129 -20 -185 -68 -170 -145 10
-54 38 -72 110 -72 53 0 68 4 99 28 19 15 38 27 41 27 2 0 6 -12 8 -27 2 -20
9 -29 26 -31 l23 -4 -3 166 -3 166 -32 32 c-27 27 -41 32 -90 36 -48 3 -67 -1
-110 -23z m175 -237 c-2 -35 -9 -46 -37 -65 -49 -33 -115 -32 -138 3 -35 54
26 102 130 103 l48 1 -3 -42z"/>
<path d="M838 1002 c4 -10 41 -100 82 -200 74 -179 75 -182 105 -182 30 0 31
3 111 198 l81 197 -25 3 c-14 2 -30 -2 -37 -10 -7 -7 -38 -79 -70 -160 -32
-81 -59 -147 -61 -145 -1 1 -27 67 -58 147 -32 79 -62 150 -68 157 -6 7 -23
13 -39 13 -23 0 -27 -3 -21 -18z"/>
<path d="M1343 995 c-56 -28 -61 -36 -39 -54 11 -9 23 -7 52 9 56 29 117 27
143 -6 12 -15 21 -41 21 -59 l0 -31 -76 -12 c-129 -20 -185 -68 -170 -145 10
-54 38 -72 110 -72 53 0 68 4 99 28 19 15 38 27 41 27 2 0 6 -12 8 -27 2 -20
9 -29 26 -31 l23 -4 -3 166 -3 166 -32 32 c-27 27 -41 32 -90 36 -48 3 -67 -1
-110 -23z m175 -237 c-2 -35 -9 -46 -37 -65 -49 -33 -115 -32 -138 3 -35 54
26 102 130 103 l48 1 -3 -42z"/>
<path d="M1690 821 l0 -201 35 0 34 0 3 152 3 152 34 23 c19 13 49 23 67 23
82 0 94 -27 94 -210 l0 -140 30 0 30 0 0 151 c0 114 -4 159 -15 183 -34 71
-129 88 -206 36 l-44 -29 -5 27 c-4 20 -12 28 -33 30 l-27 3 0 -200z"/>
<path d="M2140 821 l0 -201 35 0 34 0 3 152 3 152 34 23 c19 13 49 23 67 23
82 0 94 -27 94 -210 l0 -140 30 0 30 0 0 151 c0 114 -4 159 -15 183 -34 71
-129 88 -206 36 l-44 -29 -5 27 c-4 20 -12 28 -33 30 l-27 3 0 -200z"/>
<path d="M2633 995 c-56 -28 -61 -36 -39 -54 11 -9 23 -7 52 9 56 29 117 27
143 -6 12 -15 21 -41 21 -59 l0 -31 -76 -12 c-129 -20 -185 -68 -170 -145 10
-54 38 -72 110 -72 53 0 68 4 99 28 19 15 38 27 41 27 2 0 6 -12 8 -27 2 -20
9 -29 26 -31 l23 -4 -3 166 -3 166 -32 32 c-27 27 -41 32 -90 36 -48 3 -67 -1
-110 -23z m175 -237 c-2 -35 -9 -46 -37 -65 -49 -33 -115 -32 -138 3 -35 54
26 102 130 103 l48 1 -3 -42z"/>
<path d="M3888 1000 c-130 -69 -126 -296 8 -360 59 -29 154 -24 209 10 34 21
35 23 19 41 -16 17 -17 17 -52 -2 -50 -26 -121 -25 -156 2 -32 25 -56 69 -56
104 l0 25 141 0 141 0 -4 53 c-5 64 -33 108 -82 131 -46 22 -122 20 -168 -4z
m151 -46 c19 -14 51 -69 51 -89 0 -3 -52 -5 -115 -5 -74 0 -115 4 -115 10 0
21 30 69 52 84 29 21 97 20 127 0z"/>
<path d="M4308 1000 c-130 -69 -125 -311 9 -366 64 -27 168 -12 202 29 11 14
11 20 1 32 -11 13 -16 13 -45 -5 -67 -42 -152 -18 -179 50 -32 80 -10 187 45
215 37 20 92 19 131 -1 30 -15 32 -15 45 2 12 16 9 21 -24 41 -49 29 -132 31
-185 3z"/>
<path d="M6167 1003 c-40 -12 -46 -17 -42 -36 2 -12 6 -47 7 -77 3 -49 1 -55
-17 -55 -15 0 -19 6 -17 25 2 14 6 44 9 67 6 53 -7 61 -74 40 -26 -8 -122 -34
-213 -57 l-165 -43 -130 -128 c-91 -90 -137 -129 -153 -129 -20 0 -22 -4 -16
-22 16 -52 24 -68 36 -68 6 0 91 79 188 175 l176 175 104 0 c58 0 111 4 119 9
20 13 41 2 41 -20 0 -24 -27 -36 -43 -20 -7 7 -51 11 -116 11 l-105 0 -163
-162 c-90 -90 -172 -177 -182 -193 -16 -28 -16 -34 -1 -105 15 -70 81 -213 88
-191 2 6 -2 20 -8 32 -10 17 -9 24 4 37 21 22 50 -1 36 -28 -6 -10 -10 -50
-10 -88 0 -83 24 -125 69 -120 23 3 26 8 29 51 4 57 16 59 62 12 27 -28 42
-35 72 -35 21 0 38 3 38 7 0 4 -38 46 -85 94 l-85 86 0 125 0 125 69 66 c66
64 72 67 120 69 28 1 59 2 69 2 11 1 17 -6 17 -19 0 -19 -6 -20 -75 -17 l-75
4 -53 -55 -52 -56 0 -118 0 -118 87 -87 c48 -49 92 -88 98 -88 6 0 21 7 34 16
l23 16 -53 54 c-28 29 -63 55 -76 59 -18 4 -23 11 -21 28 4 29 29 28 44 -2 13
-26 104 -121 116 -121 4 0 15 11 24 25 16 24 15 27 0 44 -10 11 -29 22 -42 25
-19 5 -25 12 -22 29 5 36 35 33 52 -6 7 -19 19 -38 26 -42 13 -8 39 22 40 48
0 10 8 21 18 24 24 9 32 23 32 57 l0 29 -85 -5 c-79 -5 -85 -4 -85 13 0 24 27
36 43 20 13 -13 127 -15 127 -2 0 5 10 11 22 14 22 6 22 7 -12 42 l-34 35
-118 0 -118 0 0 -38 c0 -21 5 -43 11 -49 16 -16 3 -43 -20 -43 -18 0 -19 5
-14 73 3 39 10 75 15 78 5 3 64 4 131 1 l122 -4 40 -39 c32 -31 44 -36 53 -27
24 24 12 54 -48 113 -33 33 -60 64 -60 69 0 6 23 34 52 63 l52 53 -168 0 -169
0 -119 -117 -118 -117 0 -52 c0 -29 4 -55 10 -59 17 -10 -2 -36 -24 -33 -15 2
-20 9 -17 23 2 11 5 43 8 70 4 49 8 53 131 178 l127 127 177 0 c118 0 179 -4
184 -11 3 -6 -19 -36 -50 -68 l-56 -57 50 -49 c43 -42 50 -46 50 -28 0 12 -4
25 -10 28 -20 12 -9 36 48 97 32 35 61 71 65 81 8 22 47 23 47 0 0 -12 3 -14
10 -7 6 6 13 42 16 80 4 53 0 84 -15 134 l-21 65 4 -88 c4 -90 -4 -111 -31
-84 -12 11 -12 19 -4 35 12 23 15 143 4 141 -5 -1 -29 -8 -56 -16z"/>
<path d="M6558 846 c-16 -33 -16 -34 16 -65 35 -34 46 -32 46 8 0 22 -33 91
-43 91 -2 0 -11 -15 -19 -34z"/>
<path d="M5530 834 c-26 -8 -62 -32 -90 -58 -38 -38 -52 -45 -90 -48 -38 -3
-45 -6 -48 -26 -5 -35 24 -72 56 -72 22 0 51 23 137 110 60 61 103 110 95 109
-8 -1 -35 -7 -60 -15z"/>
<path d="M5368 792 c-67 -19 -78 -42 -20 -42 29 0 45 7 67 30 32 34 32 33 -47
12z"/>
<path d="M6499 772 l-26 -17 53 -47 52 -48 7 36 c5 31 2 41 -21 65 -32 33 -31
33 -65 11z"/>
<path d="M6420 710 c-6 -12 -10 -33 -8 -48 2 -21 10 -28 36 -33 19 -4 49 -21
67 -39 l33 -32 11 38 c10 38 10 40 -36 86 -51 52 -85 61 -103 28z"/>
<path d="M6410 587 c0 -18 50 -64 75 -69 28 -5 27 -42 -2 -46 -15 -2 -23 4
-28 20 -9 29 -45 69 -56 62 -5 -3 -9 -22 -9 -43 0 -30 7 -44 39 -75 48 -46 72
-43 95 15 24 58 20 91 -12 122 -31 30 -102 39 -102 14z"/>
<path d="M6400 433 c0 -13 29 -38 35 -31 3 3 -4 13 -15 23 -11 10 -20 13 -20
8z"/>
<path d="M5640 75 c0 -20 5 -25 27 -25 l26 0 -23 25 c-13 14 -25 25 -27 25 -2
0 -3 -11 -3 -25z"/>
</g>
</svg>
